<mxfile host="app.diagrams.net" modified="2023-05-22T14:02:05.013Z" agent="5.0 (Windows NT 10.0; Win64; x64) AppleWebKit/537.36 (KHTML, like Gecko) Chrome/113.0.0.0 Safari/537.36" etag="ILY18PZJIUEPdMieX0M-" version="21.0.2" type="github" pages="2">
  <diagram name="Page-1" id="929967ad-93f9-6ef4-fab6-5d389245f69c">
    <mxGraphModel dx="647" dy="353" grid="1" gridSize="10" guides="1" tooltips="1" connect="1" arrows="1" fold="1" page="1" pageScale="1.5" pageWidth="1169" pageHeight="826" background="none" math="0" shadow="0">
      <root>
        <mxCell id="0" style=";html=1;" />
        <mxCell id="1" style=";html=1;" parent="0" />
        <mxCell id="fu375ZCut4iSAKl61FI6-4" value="Компания X5" style="rounded=0;whiteSpace=wrap;html=1;" vertex="1" parent="1">
          <mxGeometry x="70" y="380" width="120" height="60" as="geometry" />
        </mxCell>
        <mxCell id="fu375ZCut4iSAKl61FI6-5" value="Фактор" style="rounded=0;whiteSpace=wrap;html=1;" vertex="1" parent="1">
          <mxGeometry x="490" y="380" width="120" height="60" as="geometry" />
        </mxCell>
        <object label="" InformationItem="InformationItem" id="fu375ZCut4iSAKl61FI6-19">
          <mxCell style="endArrow=none;html=1;rounded=0;strokeColor=default;startArrow=block;startFill=1;endFill=0;labelPosition=center;verticalLabelPosition=bottom;align=center;verticalAlign=top;flowAnimation=0;targetPerimeterSpacing=0;strokeWidth=0;endSize=0;sourcePerimeterSpacing=0;startSize=17;jumpStyle=none;jumpSize=0;" edge="1" parent="1">
            <mxGeometry relative="1" as="geometry">
              <mxPoint x="317" y="385" as="sourcePoint" />
              <mxPoint x="467" y="385" as="targetPoint" />
            </mxGeometry>
          </mxCell>
        </object>
        <mxCell id="fu375ZCut4iSAKl61FI6-21" value="&amp;nbsp;УоФ,РУДТ,РПП,РОУДТ,УИДФ,УОДФ&lt;br&gt;РПД-ack" style="edgeLabel;html=1;align=center;verticalAlign=middle;resizable=0;points=[];labelPosition=left;verticalLabelPosition=middle;labelBackgroundColor=none;" vertex="1" connectable="0" parent="fu375ZCut4iSAKl61FI6-19">
          <mxGeometry relative="1" as="geometry">
            <mxPoint x="-64" y="20" as="offset" />
          </mxGeometry>
        </mxCell>
        <mxCell id="fu375ZCut4iSAKl61FI6-22" value="" style="endArrow=none;html=1;rounded=0;entryX=0;entryY=0.25;entryDx=0;entryDy=0;exitX=1;exitY=0.25;exitDx=0;exitDy=0;fontColor=default;" edge="1" parent="1">
          <mxGeometry width="50" height="50" relative="1" as="geometry">
            <mxPoint x="190" y="385" as="sourcePoint" />
            <mxPoint x="490" y="385" as="targetPoint" />
            <Array as="points" />
          </mxGeometry>
        </mxCell>
        <mxCell id="fu375ZCut4iSAKl61FI6-23" value="1" style="edgeLabel;html=1;align=center;verticalAlign=bottom;resizable=0;points=[];" vertex="1" connectable="0" parent="fu375ZCut4iSAKl61FI6-22">
          <mxGeometry x="-0.9289" y="1" relative="1" as="geometry">
            <mxPoint y="23" as="offset" />
          </mxGeometry>
        </mxCell>
        <mxCell id="fu375ZCut4iSAKl61FI6-35" value="Покупатель" style="edgeLabel;html=1;align=center;verticalAlign=middle;resizable=0;points=[];labelBorderColor=none;labelBackgroundColor=none;" vertex="1" connectable="0" parent="fu375ZCut4iSAKl61FI6-22">
          <mxGeometry x="-0.8422" relative="1" as="geometry">
            <mxPoint x="5" y="-15" as="offset" />
          </mxGeometry>
        </mxCell>
        <mxCell id="fu375ZCut4iSAKl61FI6-37" value="*" style="edgeLabel;html=1;align=center;verticalAlign=bottom;resizable=0;points=[];" vertex="1" connectable="0" parent="fu375ZCut4iSAKl61FI6-22">
          <mxGeometry x="0.9044" relative="1" as="geometry">
            <mxPoint y="23" as="offset" />
          </mxGeometry>
        </mxCell>
        <object label="" InformationItem="InformationItem" id="fu375ZCut4iSAKl61FI6-29">
          <mxCell style="endArrow=block;html=1;rounded=0;strokeColor=default;startArrow=none;startFill=0;endFill=1;labelPosition=center;verticalLabelPosition=bottom;align=center;verticalAlign=top;flowAnimation=0;targetPerimeterSpacing=0;strokeWidth=0;endSize=17;sourcePerimeterSpacing=0;startSize=0;jumpStyle=none;jumpSize=0;" edge="1" parent="1">
            <mxGeometry x="-0.0008" relative="1" as="geometry">
              <mxPoint x="190" y="435" as="sourcePoint" />
              <mxPoint x="336" y="435" as="targetPoint" />
              <mxPoint as="offset" />
            </mxGeometry>
          </mxCell>
        </object>
        <mxCell id="fu375ZCut4iSAKl61FI6-30" value="УоФ,РПД,РУДТ,РПП,РОУДТ,УОДФ&lt;br&gt;УоФ-error,РУДТ-error,РПП-error,РОУДТ-error,УИДФ-error,УОДФ-error&amp;nbsp;" style="edgeLabel;html=1;align=center;verticalAlign=middle;resizable=0;points=[];labelPosition=left;verticalLabelPosition=middle;labelBackgroundColor=none;" vertex="1" connectable="0" parent="fu375ZCut4iSAKl61FI6-29">
          <mxGeometry relative="1" as="geometry">
            <mxPoint x="72" y="24" as="offset" />
          </mxGeometry>
        </mxCell>
        <mxCell id="fu375ZCut4iSAKl61FI6-31" value="" style="endArrow=none;html=1;rounded=0;entryX=0;entryY=0.25;entryDx=0;entryDy=0;exitX=1;exitY=0.25;exitDx=0;exitDy=0;fontColor=default;verticalAlign=middle;" edge="1" parent="1">
          <mxGeometry width="50" height="50" relative="1" as="geometry">
            <mxPoint x="190" y="435" as="sourcePoint" />
            <mxPoint x="490" y="435" as="targetPoint" />
            <Array as="points" />
          </mxGeometry>
        </mxCell>
        <mxCell id="fu375ZCut4iSAKl61FI6-32" value="1" style="edgeLabel;html=1;align=center;verticalAlign=bottom;resizable=0;points=[];" vertex="1" connectable="0" parent="fu375ZCut4iSAKl61FI6-31">
          <mxGeometry x="-0.9289" y="1" relative="1" as="geometry">
            <mxPoint y="24" as="offset" />
          </mxGeometry>
        </mxCell>
        <mxCell id="fu375ZCut4iSAKl61FI6-33" value="*" style="edgeLabel;html=1;align=center;verticalAlign=bottom;resizable=0;points=[];" vertex="1" connectable="0" parent="fu375ZCut4iSAKl61FI6-31">
          <mxGeometry x="0.9044" relative="1" as="geometry">
            <mxPoint y="23" as="offset" />
          </mxGeometry>
        </mxCell>
        <mxCell id="fu375ZCut4iSAKl61FI6-39" value="Покупатель" style="edgeLabel;html=1;align=center;verticalAlign=middle;resizable=0;points=[];labelBackgroundColor=none;" vertex="1" connectable="0" parent="fu375ZCut4iSAKl61FI6-31">
          <mxGeometry x="-0.8889" y="1" relative="1" as="geometry">
            <mxPoint x="17" y="-13" as="offset" />
          </mxGeometry>
        </mxCell>
        <mxCell id="fu375ZCut4iSAKl61FI6-41" value="Диаграмма информационных потоков&lt;br&gt;БП &quot;Факторинг&quot;" style="text;html=1;align=center;verticalAlign=middle;resizable=0;points=[];autosize=1;strokeColor=none;fillColor=none;fontStyle=1" vertex="1" parent="1">
          <mxGeometry x="210" y="270" width="250" height="40" as="geometry" />
        </mxCell>
      </root>
    </mxGraphModel>
  </diagram>
  <diagram id="RBxNGfNoUyg8NmXb8gKQ" name="Страница 2">
    <mxGraphModel dx="1303" dy="632" grid="1" gridSize="10" guides="1" tooltips="1" connect="1" arrows="1" fold="1" page="1" pageScale="1" pageWidth="827" pageHeight="1169" math="0" shadow="0">
      <root>
        <mxCell id="0" />
        <mxCell id="1" parent="0" />
        <mxCell id="5wCDZV2-zJ8sQ3Wg2F0M-1" value="&lt;b&gt;Портал Инфраструктуры&lt;br&gt;&lt;/b&gt;" style="html=1;dropTarget=0;labelPosition=center;verticalLabelPosition=middle;align=center;verticalAlign=top;" vertex="1" parent="1">
          <mxGeometry x="120" y="160" width="180" height="960" as="geometry" />
        </mxCell>
        <mxCell id="5wCDZV2-zJ8sQ3Wg2F0M-2" value="" style="shape=module;jettyWidth=8;jettyHeight=4;" vertex="1" parent="5wCDZV2-zJ8sQ3Wg2F0M-1">
          <mxGeometry x="1" width="20" height="20" relative="1" as="geometry">
            <mxPoint x="-27" y="7" as="offset" />
          </mxGeometry>
        </mxCell>
        <mxCell id="5wCDZV2-zJ8sQ3Wg2F0M-4" value="&lt;b&gt;MFSM&lt;/b&gt;&lt;br&gt;" style="html=1;dropTarget=0;labelPosition=center;verticalLabelPosition=middle;align=center;verticalAlign=top;" vertex="1" parent="1">
          <mxGeometry x="480" y="200" width="180" height="100" as="geometry" />
        </mxCell>
        <mxCell id="5wCDZV2-zJ8sQ3Wg2F0M-5" value="" style="shape=module;jettyWidth=8;jettyHeight=4;" vertex="1" parent="5wCDZV2-zJ8sQ3Wg2F0M-4">
          <mxGeometry x="1" width="20" height="20" relative="1" as="geometry">
            <mxPoint x="-27" y="7" as="offset" />
          </mxGeometry>
        </mxCell>
        <mxCell id="5wCDZV2-zJ8sQ3Wg2F0M-8" value="CMDB" style="shape=module;align=left;spacingLeft=20;align=center;verticalAlign=top;" vertex="1" parent="1">
          <mxGeometry x="510" y="225" width="100" height="50" as="geometry" />
        </mxCell>
        <mxCell id="5wCDZV2-zJ8sQ3Wg2F0M-9" value="" style="rounded=0;orthogonalLoop=1;jettySize=auto;html=1;endArrow=none;endFill=0;sketch=0;sourcePerimeterSpacing=0;targetPerimeterSpacing=0;exitX=1.001;exitY=0.099;exitDx=0;exitDy=0;exitPerimeter=0;" edge="1" target="5wCDZV2-zJ8sQ3Wg2F0M-11" parent="1" source="5wCDZV2-zJ8sQ3Wg2F0M-1">
          <mxGeometry relative="1" as="geometry">
            <mxPoint x="390" y="275" as="sourcePoint" />
          </mxGeometry>
        </mxCell>
        <mxCell id="5wCDZV2-zJ8sQ3Wg2F0M-10" value="" style="rounded=0;orthogonalLoop=1;jettySize=auto;html=1;endArrow=halfCircle;endFill=0;endSize=6;strokeWidth=1;sketch=0;exitX=0;exitY=0.5;exitDx=0;exitDy=0;" edge="1" target="5wCDZV2-zJ8sQ3Wg2F0M-11" parent="1" source="5wCDZV2-zJ8sQ3Wg2F0M-4">
          <mxGeometry relative="1" as="geometry">
            <mxPoint x="430" y="275" as="sourcePoint" />
            <mxPoint x="420" y="215" as="targetPoint" />
          </mxGeometry>
        </mxCell>
        <mxCell id="5wCDZV2-zJ8sQ3Wg2F0M-11" value="" style="ellipse;whiteSpace=wrap;html=1;align=center;aspect=fixed;resizable=0;points=[];outlineConnect=0;sketch=0;" vertex="1" parent="1">
          <mxGeometry x="385" y="250" width="10" height="10" as="geometry" />
        </mxCell>
        <mxCell id="5wCDZV2-zJ8sQ3Wg2F0M-15" value="Личный &#xa;кабинет" style="shape=module;align=left;spacingLeft=20;align=center;verticalAlign=top;" vertex="1" parent="1">
          <mxGeometry x="160" y="210" width="100" height="50" as="geometry" />
        </mxCell>
        <mxCell id="5wCDZV2-zJ8sQ3Wg2F0M-16" value="Заявка на расчет стоимости&lt;br&gt;Заявка на выделение IT-мощности&lt;br&gt;Карточка КЕ" style="shape=note;whiteSpace=wrap;html=1;backgroundOutline=1;darkOpacity=0.05;" vertex="1" parent="1">
          <mxGeometry x="310" y="60" width="160" height="130" as="geometry" />
        </mxCell>
        <mxCell id="5wCDZV2-zJ8sQ3Wg2F0M-17" value="" style="endArrow=none;dashed=1;html=1;dashPattern=1 3;strokeWidth=2;rounded=0;entryX=0.5;entryY=1;entryDx=0;entryDy=0;entryPerimeter=0;" edge="1" parent="1" source="5wCDZV2-zJ8sQ3Wg2F0M-11" target="5wCDZV2-zJ8sQ3Wg2F0M-16">
          <mxGeometry width="50" height="50" relative="1" as="geometry">
            <mxPoint x="390" y="210" as="sourcePoint" />
            <mxPoint x="440" y="220" as="targetPoint" />
          </mxGeometry>
        </mxCell>
        <mxCell id="5wCDZV2-zJ8sQ3Wg2F0M-20" value="&lt;br&gt;&lt;b&gt;АСУМ&lt;/b&gt;" style="html=1;dropTarget=0;verticalAlign=top;" vertex="1" parent="1">
          <mxGeometry x="480" y="400" width="180" height="90" as="geometry" />
        </mxCell>
        <mxCell id="5wCDZV2-zJ8sQ3Wg2F0M-21" value="" style="shape=module;jettyWidth=8;jettyHeight=4;" vertex="1" parent="5wCDZV2-zJ8sQ3Wg2F0M-20">
          <mxGeometry x="1" width="20" height="20" relative="1" as="geometry">
            <mxPoint x="-27" y="7" as="offset" />
          </mxGeometry>
        </mxCell>
        <mxCell id="5wCDZV2-zJ8sQ3Wg2F0M-28" value="" style="rounded=0;orthogonalLoop=1;jettySize=auto;html=1;endArrow=none;endFill=0;sketch=0;sourcePerimeterSpacing=0;targetPerimeterSpacing=0;exitX=1.002;exitY=0.293;exitDx=0;exitDy=0;exitPerimeter=0;" edge="1" target="5wCDZV2-zJ8sQ3Wg2F0M-30" parent="1" source="5wCDZV2-zJ8sQ3Wg2F0M-1">
          <mxGeometry relative="1" as="geometry">
            <mxPoint x="320" y="320" as="sourcePoint" />
          </mxGeometry>
        </mxCell>
        <mxCell id="5wCDZV2-zJ8sQ3Wg2F0M-29" value="" style="rounded=0;orthogonalLoop=1;jettySize=auto;html=1;endArrow=halfCircle;endFill=0;entryX=0.5;entryY=0.5;endSize=6;strokeWidth=1;sketch=0;exitX=0;exitY=0.5;exitDx=0;exitDy=0;" edge="1" target="5wCDZV2-zJ8sQ3Wg2F0M-30" parent="1" source="5wCDZV2-zJ8sQ3Wg2F0M-20">
          <mxGeometry relative="1" as="geometry">
            <mxPoint x="450" y="325" as="sourcePoint" />
          </mxGeometry>
        </mxCell>
        <mxCell id="5wCDZV2-zJ8sQ3Wg2F0M-30" value="" style="ellipse;whiteSpace=wrap;html=1;align=center;aspect=fixed;resizable=0;points=[];outlineConnect=0;sketch=0;" vertex="1" parent="1">
          <mxGeometry x="385" y="440" width="10" height="10" as="geometry" />
        </mxCell>
        <mxCell id="5wCDZV2-zJ8sQ3Wg2F0M-31" value="Органический&lt;br&gt;рост&lt;br&gt;Драйверы ув.&lt;br&gt;мощности" style="shape=note;whiteSpace=wrap;html=1;backgroundOutline=1;darkOpacity=0.05;" vertex="1" parent="1">
          <mxGeometry x="330" y="300" width="120" height="100" as="geometry" />
        </mxCell>
        <mxCell id="5wCDZV2-zJ8sQ3Wg2F0M-32" value="" style="endArrow=none;dashed=1;html=1;rounded=0;exitX=0.5;exitY=1;exitDx=0;exitDy=0;exitPerimeter=0;" edge="1" parent="1" source="5wCDZV2-zJ8sQ3Wg2F0M-31" target="5wCDZV2-zJ8sQ3Wg2F0M-30">
          <mxGeometry width="50" height="50" relative="1" as="geometry">
            <mxPoint x="410" y="350" as="sourcePoint" />
            <mxPoint x="460" y="300" as="targetPoint" />
          </mxGeometry>
        </mxCell>
        <mxCell id="5wCDZV2-zJ8sQ3Wg2F0M-33" value="&lt;br&gt;&lt;b&gt;АСУД&lt;/b&gt;" style="html=1;dropTarget=0;" vertex="1" parent="1">
          <mxGeometry x="480" y="600" width="180" height="90" as="geometry" />
        </mxCell>
        <mxCell id="5wCDZV2-zJ8sQ3Wg2F0M-34" value="" style="shape=module;jettyWidth=8;jettyHeight=4;" vertex="1" parent="5wCDZV2-zJ8sQ3Wg2F0M-33">
          <mxGeometry x="1" width="20" height="20" relative="1" as="geometry">
            <mxPoint x="-27" y="7" as="offset" />
          </mxGeometry>
        </mxCell>
        <mxCell id="5wCDZV2-zJ8sQ3Wg2F0M-40" value="" style="rounded=0;orthogonalLoop=1;jettySize=auto;html=1;endArrow=none;endFill=0;sketch=0;sourcePerimeterSpacing=0;targetPerimeterSpacing=0;exitX=1;exitY=0.5;exitDx=0;exitDy=0;" edge="1" target="5wCDZV2-zJ8sQ3Wg2F0M-42" parent="1" source="5wCDZV2-zJ8sQ3Wg2F0M-1">
          <mxGeometry relative="1" as="geometry">
            <mxPoint x="290" y="565" as="sourcePoint" />
          </mxGeometry>
        </mxCell>
        <mxCell id="5wCDZV2-zJ8sQ3Wg2F0M-41" value="" style="rounded=0;orthogonalLoop=1;jettySize=auto;html=1;endArrow=halfCircle;endFill=0;endSize=6;strokeWidth=1;sketch=0;exitX=0;exitY=0.5;exitDx=0;exitDy=0;" edge="1" target="5wCDZV2-zJ8sQ3Wg2F0M-42" parent="1" source="5wCDZV2-zJ8sQ3Wg2F0M-33">
          <mxGeometry relative="1" as="geometry">
            <mxPoint x="430" y="550" as="sourcePoint" />
            <mxPoint x="400" y="565" as="targetPoint" />
          </mxGeometry>
        </mxCell>
        <mxCell id="5wCDZV2-zJ8sQ3Wg2F0M-42" value="" style="ellipse;whiteSpace=wrap;html=1;align=center;aspect=fixed;resizable=0;points=[];outlineConnect=0;sketch=0;" vertex="1" parent="1">
          <mxGeometry x="385" y="640" width="10" height="10" as="geometry" />
        </mxCell>
        <mxCell id="5wCDZV2-zJ8sQ3Wg2F0M-43" value="Перечень ИС&lt;br&gt;Шаблон роли" style="shape=note;whiteSpace=wrap;html=1;backgroundOutline=1;darkOpacity=0.05;" vertex="1" parent="1">
          <mxGeometry x="350" y="500" width="80" height="100" as="geometry" />
        </mxCell>
        <mxCell id="5wCDZV2-zJ8sQ3Wg2F0M-47" value="" style="endArrow=none;dashed=1;html=1;rounded=0;entryX=0.5;entryY=1;entryDx=0;entryDy=0;entryPerimeter=0;" edge="1" parent="1" source="5wCDZV2-zJ8sQ3Wg2F0M-42" target="5wCDZV2-zJ8sQ3Wg2F0M-43">
          <mxGeometry width="50" height="50" relative="1" as="geometry">
            <mxPoint x="390" y="560" as="sourcePoint" />
            <mxPoint x="340" y="540" as="targetPoint" />
          </mxGeometry>
        </mxCell>
        <mxCell id="5wCDZV2-zJ8sQ3Wg2F0M-48" value="&lt;br&gt;&lt;b&gt;Финпортал&lt;/b&gt;" style="html=1;dropTarget=0;verticalAlign=top;" vertex="1" parent="1">
          <mxGeometry x="480" y="800" width="180" height="90" as="geometry" />
        </mxCell>
        <mxCell id="5wCDZV2-zJ8sQ3Wg2F0M-49" value="" style="shape=module;jettyWidth=8;jettyHeight=4;" vertex="1" parent="5wCDZV2-zJ8sQ3Wg2F0M-48">
          <mxGeometry x="1" width="20" height="20" relative="1" as="geometry">
            <mxPoint x="-27" y="7" as="offset" />
          </mxGeometry>
        </mxCell>
        <mxCell id="5wCDZV2-zJ8sQ3Wg2F0M-50" value="" style="rounded=0;orthogonalLoop=1;jettySize=auto;html=1;endArrow=none;endFill=0;sketch=0;sourcePerimeterSpacing=0;targetPerimeterSpacing=0;exitX=1.008;exitY=0.709;exitDx=0;exitDy=0;exitPerimeter=0;" edge="1" target="5wCDZV2-zJ8sQ3Wg2F0M-52" parent="1" source="5wCDZV2-zJ8sQ3Wg2F0M-1">
          <mxGeometry relative="1" as="geometry">
            <mxPoint x="290" y="555" as="sourcePoint" />
          </mxGeometry>
        </mxCell>
        <mxCell id="5wCDZV2-zJ8sQ3Wg2F0M-51" value="" style="rounded=0;orthogonalLoop=1;jettySize=auto;html=1;endArrow=halfCircle;endFill=0;endSize=6;strokeWidth=1;sketch=0;exitX=0;exitY=0.5;exitDx=0;exitDy=0;" edge="1" target="5wCDZV2-zJ8sQ3Wg2F0M-52" parent="1" source="5wCDZV2-zJ8sQ3Wg2F0M-48">
          <mxGeometry relative="1" as="geometry">
            <mxPoint x="330" y="555" as="sourcePoint" />
            <mxPoint x="390" y="690" as="targetPoint" />
          </mxGeometry>
        </mxCell>
        <mxCell id="5wCDZV2-zJ8sQ3Wg2F0M-52" value="" style="ellipse;whiteSpace=wrap;html=1;align=center;aspect=fixed;resizable=0;points=[];outlineConnect=0;sketch=0;" vertex="1" parent="1">
          <mxGeometry x="385" y="840" width="10" height="10" as="geometry" />
        </mxCell>
        <mxCell id="5wCDZV2-zJ8sQ3Wg2F0M-53" value="План.&lt;br&gt;Факт.стоимость ИТ-мощностей" style="shape=note;whiteSpace=wrap;html=1;backgroundOutline=1;darkOpacity=0.05;" vertex="1" parent="1">
          <mxGeometry x="350" y="700" width="80" height="100" as="geometry" />
        </mxCell>
        <mxCell id="5wCDZV2-zJ8sQ3Wg2F0M-54" value="" style="endArrow=none;dashed=1;html=1;rounded=0;entryX=0.5;entryY=1;entryDx=0;entryDy=0;entryPerimeter=0;" edge="1" parent="1" source="5wCDZV2-zJ8sQ3Wg2F0M-52" target="5wCDZV2-zJ8sQ3Wg2F0M-53">
          <mxGeometry width="50" height="50" relative="1" as="geometry">
            <mxPoint x="290" y="580" as="sourcePoint" />
            <mxPoint x="340" y="530" as="targetPoint" />
          </mxGeometry>
        </mxCell>
        <mxCell id="5wCDZV2-zJ8sQ3Wg2F0M-55" value="&lt;br&gt;&lt;b&gt;MatriX5&lt;/b&gt;" style="html=1;dropTarget=0;" vertex="1" parent="1">
          <mxGeometry x="480" y="1000" width="180" height="90" as="geometry" />
        </mxCell>
        <mxCell id="5wCDZV2-zJ8sQ3Wg2F0M-56" value="" style="shape=module;jettyWidth=8;jettyHeight=4;" vertex="1" parent="5wCDZV2-zJ8sQ3Wg2F0M-55">
          <mxGeometry x="1" width="20" height="20" relative="1" as="geometry">
            <mxPoint x="-27" y="7" as="offset" />
          </mxGeometry>
        </mxCell>
        <mxCell id="5wCDZV2-zJ8sQ3Wg2F0M-57" value="" style="rounded=0;orthogonalLoop=1;jettySize=auto;html=1;endArrow=none;endFill=0;sketch=0;sourcePerimeterSpacing=0;targetPerimeterSpacing=0;exitX=1.014;exitY=0.924;exitDx=0;exitDy=0;exitPerimeter=0;" edge="1" target="5wCDZV2-zJ8sQ3Wg2F0M-59" parent="1" source="5wCDZV2-zJ8sQ3Wg2F0M-1">
          <mxGeometry relative="1" as="geometry">
            <mxPoint x="290" y="795" as="sourcePoint" />
          </mxGeometry>
        </mxCell>
        <mxCell id="5wCDZV2-zJ8sQ3Wg2F0M-58" value="" style="rounded=0;orthogonalLoop=1;jettySize=auto;html=1;endArrow=halfCircle;endFill=0;endSize=6;strokeWidth=1;sketch=0;exitX=0;exitY=0.5;exitDx=0;exitDy=0;" edge="1" target="5wCDZV2-zJ8sQ3Wg2F0M-59" parent="1" source="5wCDZV2-zJ8sQ3Wg2F0M-55">
          <mxGeometry relative="1" as="geometry">
            <mxPoint x="330" y="795" as="sourcePoint" />
            <mxPoint x="400" y="885" as="targetPoint" />
          </mxGeometry>
        </mxCell>
        <mxCell id="5wCDZV2-zJ8sQ3Wg2F0M-59" value="" style="ellipse;whiteSpace=wrap;html=1;align=center;aspect=fixed;resizable=0;points=[];outlineConnect=0;sketch=0;" vertex="1" parent="1">
          <mxGeometry x="385" y="1040" width="10" height="10" as="geometry" />
        </mxCell>
        <mxCell id="5wCDZV2-zJ8sQ3Wg2F0M-61" value="Архитектурные артефакты" style="shape=note;whiteSpace=wrap;html=1;backgroundOutline=1;darkOpacity=0.05;" vertex="1" parent="1">
          <mxGeometry x="350" y="900" width="80" height="100" as="geometry" />
        </mxCell>
        <mxCell id="5wCDZV2-zJ8sQ3Wg2F0M-62" value="" style="endArrow=none;dashed=1;html=1;rounded=0;entryX=0.5;entryY=1;entryDx=0;entryDy=0;entryPerimeter=0;" edge="1" parent="1" source="5wCDZV2-zJ8sQ3Wg2F0M-59" target="5wCDZV2-zJ8sQ3Wg2F0M-61">
          <mxGeometry width="50" height="50" relative="1" as="geometry">
            <mxPoint x="310" y="740" as="sourcePoint" />
            <mxPoint x="360" y="690" as="targetPoint" />
          </mxGeometry>
        </mxCell>
      </root>
    </mxGraphModel>
  </diagram>
</mxfile>
